<?xml version="1.0" encoding="UTF-8"?>
<svg xmlns="http://www.w3.org/2000/svg" xmlns:xlink="http://www.w3.org/1999/xlink" width="54px" height="73px" viewBox="0 0 54 72" version="1.1">
<g id="surface1">
<path style=" stroke:none;fill-rule:nonzero;fill:rgb(32.54902%,50.980392%,63.137255%);fill-opacity:1;" d="M 17.410156 55.660156 C 17.410156 55.660156 14.628906 57.257812 19.390625 57.796875 C 25.164062 58.445312 28.113281 58.351562 34.476562 57.164062 C 34.476562 57.164062 36.148438 58.199219 38.484375 59.097656 C 24.222656 65.125 6.210938 58.746094 17.410156 55.660156 M 15.667969 47.789062 C 15.667969 47.789062 12.546875 50.070312 17.316406 50.558594 C 23.480469 51.183594 28.351562 51.234375 36.777344 49.636719 C 36.777344 49.636719 37.941406 50.800781 39.773438 51.4375 C 22.535156 56.414062 3.332031 51.832031 15.667969 47.789062 "/>
<path style=" stroke:none;fill-rule:nonzero;fill:rgb(90.588235%,43.529412%,0%);fill-opacity:1;" d="M 30.359375 34.441406 C 33.871094 38.433594 29.433594 42.023438 29.433594 42.023438 C 29.433594 42.023438 38.355469 37.480469 34.257812 31.789062 C 30.433594 26.484375 27.496094 23.847656 43.382812 14.757812 C 43.382812 14.757812 18.449219 20.902344 30.359375 34.441406 "/>
<path style=" stroke:none;fill-rule:nonzero;fill:rgb(32.54902%,50.980392%,63.137255%);fill-opacity:1;" d="M 49.21875 61.480469 C 49.21875 61.480469 51.277344 63.152344 46.949219 64.449219 C 38.71875 66.910156 12.691406 67.652344 5.460938 64.546875 C 2.863281 63.433594 7.734375 61.882812 9.269531 61.558594 C 10.867188 61.214844 11.78125 61.28125 11.78125 61.28125 C 8.890625 59.269531 -6.902344 65.226562 3.761719 66.929688 C 32.835938 71.582031 56.757812 64.835938 49.21875 61.480469 M 18.75 39.636719 C 18.75 39.636719 5.511719 42.738281 14.0625 43.867188 C 17.671875 44.34375 24.867188 44.234375 31.574219 43.679688 C 37.050781 43.226562 42.554688 42.257812 42.554688 42.257812 C 42.554688 42.257812 40.621094 43.070312 39.222656 44.015625 C 25.78125 47.503906 -0.191406 45.878906 7.285156 42.3125 C 13.609375 39.296875 18.75 39.636719 18.75 39.636719 M 42.5 52.734375 C 56.164062 45.726562 49.847656 38.996094 45.4375 39.902344 C 44.355469 40.125 43.871094 40.316406 43.871094 40.316406 C 43.871094 40.316406 44.273438 39.695312 45.039062 39.425781 C 53.765625 36.402344 60.476562 48.355469 42.222656 53.089844 C 42.222656 53.089844 42.433594 52.902344 42.5 52.734375 "/>
<path style=" stroke:none;fill-rule:nonzero;fill:rgb(90.588235%,43.529412%,0%);fill-opacity:1;" d="M 34.257812 0.078125 C 34.257812 0.078125 41.828125 7.546875 27.082031 19.035156 C 15.253906 28.25 24.382812 33.503906 27.074219 39.507812 C 20.171875 33.359375 15.105469 27.953125 18.503906 22.917969 C 23.492188 15.527344 37.3125 11.941406 34.257812 0.078125 "/>
<path style=" stroke:none;fill-rule:nonzero;fill:rgb(32.54902%,50.980392%,63.137255%);fill-opacity:1;" d="M 20.09375 71.722656 C 33.210938 72.550781 53.355469 71.261719 53.832031 65.136719 C 53.832031 65.136719 52.914062 67.460938 42.992188 69.304688 C 31.792969 71.382812 17.984375 71.140625 9.792969 69.808594 C 9.792969 69.808594 11.472656 71.175781 20.09375 71.722656 "/>
</g>
</svg>
