<?xml version="1.0" encoding="UTF-8"?>
<svg xmlns="http://www.w3.org/2000/svg" xmlns:xlink="http://www.w3.org/1999/xlink" width="900px" height="1216px" viewBox="0 0 900 1216" version="1.1">
<g id="surface1">
<path style=" stroke:none;fill-rule:nonzero;fill:rgb(32.54902%,50.980392%,63.137255%);fill-opacity:1;" d="M 290.183594 940.019531 C 290.183594 940.019531 243.792969 966.992188 323.199219 976.121094 C 419.40625 987.09375 468.570312 985.523438 574.589844 965.457031 C 574.589844 965.457031 602.464844 982.933594 641.386719 998.070312 C 403.726562 1099.90625 103.511719 992.167969 290.183594 940.019531 M 261.140625 807.125 C 261.140625 807.125 209.109375 845.636719 288.578125 853.851562 C 391.34375 864.453125 472.5 865.320312 612.933594 838.285156 C 612.933594 838.285156 632.359375 857.972656 662.902344 868.742188 C 375.554688 952.75 55.503906 875.367188 261.140625 807.125 "/>
<path style=" stroke:none;fill-rule:nonzero;fill:rgb(90.588235%,43.529412%,0%);fill-opacity:1;" d="M 505.96875 581.695312 C 564.527344 649.101562 490.582031 709.761719 490.582031 709.761719 C 490.582031 709.761719 639.273438 633.015625 570.984375 536.910156 C 507.207031 447.292969 458.296875 402.757812 723.074219 249.222656 C 723.074219 249.222656 307.460938 353.003906 505.96875 581.691406 "/>
<path style=" stroke:none;fill-rule:nonzero;fill:rgb(32.54902%,50.980392%,63.137255%);fill-opacity:1;" d="M 820.292969 1038.316406 C 820.292969 1038.316406 854.625 1066.597656 782.480469 1088.476562 C 645.300781 1130.03125 211.519531 1142.574219 91.015625 1090.132812 C 47.699219 1071.296875 128.933594 1045.148438 154.484375 1039.660156 C 181.132812 1033.882812 196.363281 1034.960938 196.363281 1034.960938 C 148.1875 1001.027344 -115.011719 1101.582031 62.671875 1130.378906 C 547.234375 1208.945312 945.980469 1095 820.292969 1038.316406 M 312.492188 669.433594 C 312.492188 669.433594 91.84375 721.832031 234.355469 740.855469 C 294.527344 748.910156 414.480469 747.089844 526.214844 737.730469 C 617.527344 730.03125 709.21875 713.65625 709.21875 713.65625 C 709.21875 713.65625 677.019531 727.441406 653.726562 743.34375 C 429.660156 802.265625 -3.191406 774.855469 121.421875 714.585938 C 226.808594 663.65625 312.492188 669.433594 312.492188 669.433594 M 708.308594 890.640625 C 936.085938 772.300781 830.769531 658.578125 757.261719 673.902344 C 739.246094 677.648438 731.214844 680.898438 731.214844 680.898438 C 731.214844 680.898438 737.902344 670.421875 750.675781 665.890625 C 896.09375 614.773438 1007.933594 816.648438 703.730469 896.601562 C 703.730469 896.605469 707.257812 893.457031 708.308594 890.640625 "/>
<path style=" stroke:none;fill-rule:nonzero;fill:rgb(90.588235%,43.529412%,0%);fill-opacity:1;" d="M 570.984375 1.304688 C 570.984375 1.304688 697.132812 127.472656 451.34375 321.472656 C 254.25 477.101562 406.398438 565.832031 451.261719 667.214844 C 336.214844 563.433594 251.78125 472.070312 308.425781 387.042969 C 391.5625 262.21875 621.878906 201.703125 570.984375 1.300781 "/>
<path style=" stroke:none;fill-rule:nonzero;fill:rgb(32.54902%,50.980392%,63.137255%);fill-opacity:1;" d="M 334.875 1211.308594 C 553.507812 1225.304688 889.242188 1203.542969 897.195312 1100.109375 C 897.195312 1100.109375 881.910156 1139.324219 716.507812 1170.464844 C 529.898438 1205.574219 299.746094 1201.476562 163.238281 1178.972656 C 163.238281 1178.972656 191.179688 1202.097656 334.878906 1211.308594 "/>
</g>
</svg>
