<?xml version="1.0" encoding="UTF-8"?>
<svg xmlns="http://www.w3.org/2000/svg" xmlns:xlink="http://www.w3.org/1999/xlink" width="33px" height="44px" viewBox="0 0 33 44" version="1.1">
<g id="surface1">
<path style=" stroke:none;fill-rule:nonzero;fill:rgb(32.54902%,50.980392%,63.137255%);fill-opacity:1;" d="M 10.636719 33.851562 C 10.636719 33.851562 8.941406 34.8125 11.851562 35.140625 C 15.378906 35.527344 17.179688 35.472656 21.070312 34.757812 C 21.070312 34.757812 22.089844 35.378906 23.519531 35.921875 C 14.800781 39.554688 3.796875 35.707031 10.636719 33.851562 M 9.574219 29.105469 C 9.574219 29.105469 7.667969 30.480469 10.582031 30.773438 C 14.351562 31.152344 17.324219 31.183594 22.476562 30.21875 C 22.476562 30.21875 23.1875 30.921875 24.304688 31.304688 C 13.769531 34.304688 2.035156 31.542969 9.574219 29.105469 "/>
<path style=" stroke:none;fill-rule:nonzero;fill:rgb(90.588235%,43.529412%,0%);fill-opacity:1;" d="M 18.554688 21.0625 C 20.699219 23.46875 17.984375 25.632812 17.984375 25.632812 C 17.984375 25.632812 23.4375 22.890625 20.933594 19.464844 C 18.597656 16.265625 16.804688 14.675781 26.511719 9.195312 C 26.511719 9.195312 11.277344 12.898438 18.554688 21.0625 "/>
<path style=" stroke:none;fill-rule:nonzero;fill:rgb(32.54902%,50.980392%,63.137255%);fill-opacity:1;" d="M 30.078125 37.355469 C 30.078125 37.355469 31.335938 38.367188 28.691406 39.144531 C 23.660156 40.628906 7.757812 41.078125 3.339844 39.207031 C 1.75 38.535156 4.726562 37.597656 5.664062 37.40625 C 6.640625 37.199219 7.199219 37.238281 7.199219 37.238281 C 5.433594 36.027344 -4.21875 39.617188 2.296875 40.640625 C 20.066406 43.445312 34.683594 39.382812 30.078125 37.355469 M 11.460938 24.191406 C 11.460938 24.191406 3.367188 26.0625 8.59375 26.742188 C 10.800781 27.027344 15.199219 26.960938 19.292969 26.628906 C 22.640625 26.355469 26.007812 25.773438 26.007812 25.773438 C 26.007812 25.773438 24.824219 26.261719 23.96875 26.832031 C 15.753906 28.933594 -0.117188 27.957031 4.449219 25.804688 C 8.316406 23.984375 11.460938 24.191406 11.460938 24.191406 M 25.972656 32.085938 C 34.320312 27.863281 30.464844 23.804688 27.765625 24.351562 C 27.105469 24.484375 26.808594 24.601562 26.808594 24.601562 C 26.808594 24.601562 27.058594 24.226562 27.523438 24.066406 C 32.859375 22.242188 36.957031 29.449219 25.804688 32.300781 C 25.804688 32.300781 25.933594 32.1875 25.972656 32.085938 "/>
<path style=" stroke:none;fill-rule:nonzero;fill:rgb(90.588235%,43.529412%,0%);fill-opacity:1;" d="M 20.933594 0.347656 C 20.933594 0.347656 25.5625 4.851562 16.550781 11.773438 C 9.324219 17.328125 14.902344 20.496094 16.546875 24.113281 C 12.328125 20.410156 9.230469 17.148438 11.308594 14.117188 C 14.355469 9.660156 22.804688 7.5 20.933594 0.347656 "/>
<path style=" stroke:none;fill-rule:nonzero;fill:rgb(32.54902%,50.980392%,63.137255%);fill-opacity:1;" d="M 12.277344 43.53125 C 20.296875 44.03125 32.605469 43.253906 32.898438 39.5625 C 32.898438 39.5625 32.335938 40.964844 26.273438 42.074219 C 19.429688 43.324219 10.988281 43.183594 5.984375 42.375 C 5.984375 42.375 7.011719 43.199219 12.277344 43.53125 "/>
</g>
</svg>
