<?xml version="1.0" encoding="UTF-8"?>
<svg xmlns="http://www.w3.org/2000/svg" xmlns:xlink="http://www.w3.org/1999/xlink" width="40px" height="54px" viewBox="0 0 40 54" version="1.1">
<g id="surface1">
<path style=" stroke:none;fill-rule:nonzero;fill:rgb(32.54902%,50.980392%,63.137255%);fill-opacity:1;" d="M 12.894531 41.542969 C 12.894531 41.542969 10.835938 42.726562 14.363281 43.125 C 18.640625 43.601562 20.824219 43.535156 25.539062 42.65625 C 25.539062 42.65625 26.777344 43.421875 28.507812 44.085938 C 17.941406 48.542969 4.601562 43.824219 12.894531 41.542969 M 11.605469 35.71875 C 11.605469 35.71875 9.292969 37.40625 12.828125 37.769531 C 17.394531 38.230469 21 38.269531 27.242188 37.085938 C 27.242188 37.085938 28.105469 37.949219 29.460938 38.417969 C 16.691406 42.101562 2.46875 38.710938 11.605469 35.71875 "/>
<path style=" stroke:none;fill-rule:nonzero;fill:rgb(90.588235%,43.529412%,0%);fill-opacity:1;" d="M 22.488281 25.847656 C 25.089844 28.800781 21.800781 31.457031 21.800781 31.457031 C 21.800781 31.457031 28.410156 28.09375 25.375 23.886719 C 22.542969 19.960938 20.367188 18.011719 32.136719 11.285156 C 32.136719 11.285156 13.667969 15.832031 22.488281 25.847656 "/>
<path style=" stroke:none;fill-rule:nonzero;fill:rgb(32.54902%,50.980392%,63.137255%);fill-opacity:1;" d="M 36.457031 45.847656 C 36.457031 45.847656 37.984375 47.085938 34.777344 48.042969 C 28.679688 49.863281 9.402344 50.414062 4.046875 48.117188 C 2.121094 47.292969 5.730469 46.144531 6.867188 45.90625 C 8.050781 45.652344 8.726562 45.703125 8.726562 45.703125 C 6.585938 44.214844 -5.113281 48.621094 2.785156 49.878906 C 24.324219 53.320312 42.042969 48.332031 36.457031 45.847656 M 13.890625 29.691406 C 13.890625 29.691406 4.082031 31.984375 10.417969 32.820312 C 13.089844 33.171875 18.421875 33.089844 23.386719 32.679688 C 27.445312 32.34375 31.523438 31.628906 31.523438 31.628906 C 31.523438 31.628906 30.089844 32.230469 29.054688 32.929688 C 19.097656 35.507812 -0.140625 34.308594 5.394531 31.667969 C 10.082031 29.4375 13.890625 29.691406 13.890625 29.691406 M 31.480469 39.378906 C 41.601562 34.195312 36.925781 29.214844 33.65625 29.886719 C 32.855469 30.050781 32.496094 30.191406 32.496094 30.191406 C 32.496094 30.191406 32.796875 29.734375 33.363281 29.535156 C 39.828125 27.296875 44.796875 36.140625 31.277344 39.640625 C 31.277344 39.640625 31.433594 39.503906 31.480469 39.378906 "/>
<path style=" stroke:none;fill-rule:nonzero;fill:rgb(90.588235%,43.529412%,0%);fill-opacity:1;" d="M 25.375 0.425781 C 25.375 0.425781 30.984375 5.953125 20.0625 14.449219 C 11.300781 21.265625 18.0625 25.152344 20.054688 29.59375 C 14.941406 25.046875 11.1875 21.046875 13.707031 17.324219 C 17.402344 11.855469 27.640625 9.203125 25.375 0.425781 "/>
<path style=" stroke:none;fill-rule:nonzero;fill:rgb(32.54902%,50.980392%,63.137255%);fill-opacity:1;" d="M 14.882812 53.425781 C 24.601562 54.039062 39.523438 53.085938 39.875 48.554688 C 39.875 48.554688 39.195312 50.273438 31.847656 51.636719 C 23.550781 53.171875 13.320312 52.996094 7.253906 52.007812 C 7.253906 52.007812 8.5 53.019531 14.882812 53.425781 "/>
</g>
</svg>
